<?xml version="1.0" encoding="UTF-8"?>
<svg width="24" height="24" viewBox="0 0 24 24" fill="none" xmlns="http://www.w3.org/2000/svg">
  <path d="M20 21C18.61 21 17.22 20.53 16 19.67C13.56 21.38 10.44 21.38 8 19.67C6.78 20.53 5.39 21 4 21H2V19H4C5.37 19 6.74 18.47 7.82 17.5L8.5 16.92L9.18 17.5C10.26 18.47 11.63 19 13 19C14.37 19 15.74 18.47 16.82 17.5L17.5 16.92L18.18 17.5C19.26 18.47 20.63 19 22 19H24V21H22H20ZM20 17C18.61 17 17.22 16.53 16 15.67C13.56 17.38 10.44 17.38 8 15.67C6.78 16.53 5.39 17 4 17H2V15H4C5.37 15 6.74 14.47 7.82 13.5L8.5 12.92L9.18 13.5C10.26 14.47 11.63 15 13 15C14.37 15 15.74 14.47 16.82 13.5L17.5 12.92L18.18 13.5C19.26 14.47 20.63 15 22 15H24V17H22H20ZM16 11.67C13.56 13.38 10.44 13.38 8 11.67C6.78 12.53 5.39 13 4 13H2V11H4C5.37 11 6.74 10.47 7.82 9.5L8.5 8.92L9.18 9.5C10.26 10.47 11.63 11 13 11C14.37 11 15.74 10.47 16.82 9.5L17.5 8.92L18.18 9.5C19.26 10.47 20.63 11 22 11H24V13H22C20.61 13 19.22 12.53 18 11.67V11.67ZM13 9C11.63 9 10.26 8.47 9.18 7.5L8.5 6.92L7.82 7.5C6.74 8.47 5.37 9 4 9H2V7H4C5.39 7 6.78 6.53 8 5.67C10.44 7.38 13.56 7.38 16 5.67C17.22 6.53 18.61 7 20 7H22V9H20C18.63 9 17.26 8.47 16.18 7.5L15.5 6.92L14.82 7.5C13.74 8.47 12.37 9 11 9H13Z" fill="#0066CC"/>
</svg>
