<?xml version="1.0" encoding="UTF-8"?>
<svg width="24" height="24" viewBox="0 0 24 24" fill="none" xmlns="http://www.w3.org/2000/svg">
  <path d="M18.92 6.01C18.72 5.42 18.16 5 17.5 5H15V3H3V19H5C5 20.66 6.34 22 8 22C9.66 22 11 20.66 11 19H17C17 20.66 18.34 22 20 22C21.66 22 23 20.66 23 19H24V12L18.92 6.01ZM8 20C7.45 20 7 19.55 7 19C7 18.45 7.45 18 8 18C8.55 18 9 18.45 9 19C9 19.55 8.55 20 8 20ZM20 20C19.45 20 19 19.55 19 19C19 18.45 19.45 18 20 18C20.55 18 21 18.45 21 19C21 19.55 20.55 20 20 20ZM17 15H15V13H17V15ZM17 11H15V9H17V11ZM17 7H15V5H17V7Z" fill="#0066CC"/>
</svg>
