<?xml version="1.0" encoding="UTF-8"?>
<svg width="200" height="200" viewBox="0 0 200 200" fill="none" xmlns="http://www.w3.org/2000/svg">
  <rect width="200" height="200" fill="#F3F4F6"/>
  <path d="M100 70C88.9543 70 80 78.9543 80 90C80 101.046 88.9543 110 100 110C111.046 110 120 101.046 120 90C120 78.9543 111.046 70 100 70ZM100 105C91.7157 105 85 98.2843 85 90C85 81.7157 91.7157 75 100 75C108.284 75 115 81.7157 115 90C115 98.2843 108.284 105 100 105Z" fill="#9CA3AF"/>
  <path d="M100 60C83.4315 60 70 73.4315 70 90C70 106.569 83.4315 120 100 120C116.569 120 130 106.569 130 90C130 73.4315 116.569 60 100 60ZM100 115C86.1929 115 75 103.807 75 90C75 76.1929 86.1929 65 100 65C113.807 65 125 76.1929 125 90C125 103.807 113.807 115 100 115Z" fill="#9CA3AF"/>
  <path d="M100 50C77.9086 50 60 67.9086 60 90C60 112.091 77.9086 130 100 130C122.091 130 140 112.091 140 90C140 67.9086 122.091 50 100 50ZM100 125C80.67 125 65 109.33 65 90C65 70.67 80.67 55 100 55C119.33 55 135 70.67 135 90C135 109.33 119.33 125 100 125Z" fill="#9CA3AF"/>
</svg>
