<?xml version="1.0" encoding="UTF-8"?>
<!DOCTYPE svg PUBLIC "-//W3C//DTD SVG 1.1//EN" "http://www.w3.org/Graphics/SVG/1.1/DTD/svg11.dtd">
<svg xmlns="http://www.w3.org/2000/svg" version="1.1" width="731px" height="731px" style="shape-rendering:geometricPrecision; text-rendering:geometricPrecision; image-rendering:optimizeQuality; fill-rule:evenodd; clip-rule:evenodd" xmlns:xlink="http://www.w3.org/1999/xlink">
<g><path style="opacity:1" fill="#044c7f" d="M -0.5,-0.5 C 243.167,-0.5 486.833,-0.5 730.5,-0.5C 730.5,243.167 730.5,486.833 730.5,730.5C 486.833,730.5 243.167,730.5 -0.5,730.5C -0.5,486.833 -0.5,243.167 -0.5,-0.5 Z"/></g>
<g><path style="opacity:1" fill="#fefefe" d="M 389.5,217.5 C 400.896,217.091 412.23,217.591 423.5,219C 432.698,222.86 438.532,229.693 441,239.5C 441.333,260.833 441.667,282.167 442,303.5C 452.232,298.234 463.066,295.401 474.5,295C 467.81,300.871 462.976,308.038 460,316.5C 452.489,338.91 447.823,361.91 446,385.5C 445.5,428.499 445.333,471.499 445.5,514.5C 426.833,514.5 408.167,514.5 389.5,514.5C 389.075,468.149 389.575,421.816 391,375.5C 394.172,353.657 403.339,334.824 418.5,319C 408.839,318.5 399.172,318.334 389.5,318.5C 389.5,284.833 389.5,251.167 389.5,217.5 Z"/></g>
<g><path style="opacity:1" fill="#fdfdfe" d="M 351.5,293.5 C 356.167,293.5 360.833,293.5 365.5,293.5C 365.5,311.833 365.5,330.167 365.5,348.5C 349.231,346.523 334.731,350.523 322,360.5C 315.286,368.602 311.286,377.935 310,388.5C 309.5,430.499 309.333,472.499 309.5,514.5C 290.833,514.5 272.167,514.5 253.5,514.5C 253.333,472.499 253.5,430.499 254,388.5C 258.319,346.347 280.152,317.514 319.5,302C 330.147,298.61 340.813,295.776 351.5,293.5 Z"/></g>
</svg>
